<?xml version="1.0" encoding="UTF-8" standalone="no"?>
<svg
   xmlns:dc="http://purl.org/dc/elements/1.1/"
   xmlns:cc="http://creativecommons.org/ns#"
   xmlns:rdf="http://www.w3.org/1999/02/22-rdf-syntax-ns#"
   xmlns:svg="http://www.w3.org/2000/svg"
   xmlns="http://www.w3.org/2000/svg"
   xmlns:sodipodi="http://sodipodi.sourceforge.net/DTD/sodipodi-0.dtd"
   xmlns:inkscape="http://www.inkscape.org/namespaces/inkscape"
   width="50mm"
   height="34mm"
   viewBox="0 0 50 34"
   version="1.1"
   id="svg8"
   inkscape:version="1.0.1 (3bc2e813f5, 2020-09-07)"
   sodipodi:docname="drawerBrown.svg">
  <defs
     id="defs2" />
  <sodipodi:namedview
     id="base"
     pagecolor="#ffffff"
     bordercolor="#666666"
     borderopacity="1.0"
     inkscape:pageopacity="0.0"
     inkscape:pageshadow="2"
     inkscape:zoom="1.6351563"
     inkscape:cx="89.967696"
     inkscape:cy="135.9883"
     inkscape:document-units="mm"
     inkscape:current-layer="layer1"
     showgrid="false"
     inkscape:window-width="1366"
     inkscape:window-height="745"
     inkscape:window-x="-8"
     inkscape:window-y="-8"
     inkscape:window-maximized="1"
     inkscape:document-rotation="0" />
  <metadata
     id="metadata5">
    <rdf:RDF>
      <cc:Work
         rdf:about="">
        <dc:format>image/svg+xml</dc:format>
        <dc:type
           rdf:resource="http://purl.org/dc/dcmitype/StillImage" />
        <dc:title></dc:title>
      </cc:Work>
    </rdf:RDF>
  </metadata>
  <g
     inkscape:label="Layer 1"
     inkscape:groupmode="layer"
     id="layer1">
    <g
       id="g881"
       transform="matrix(1.1715002,0,0,1.2298469,-4.3255139,-10.098393)">
      <g
         id="g871">
        <path
           style="opacity:1;fill:#917c6f;fill-opacity:1;stroke:#917c6f;stroke-width:0.484649;stroke-miterlimit:4;stroke-dasharray:none;stroke-dashoffset:0;stroke-opacity:1"
           d="M 4.000711,13.399299 C 4.0008627,12.229115 4.007811,11.28971 4.020633,10.638638 3.9393241,8.6319362 5.339386,8.4504886 6.656505,8.4534706 h 18.363662 c 11.249668,0 16.845186,0.011056 18.965116,0.041474 1.439752,0.060217 2.148634,0.5932263 2.143811,1.8809074 l 5.75e-4,2.957721 5.74e-4,3.59846 H 25.065302 4.0003445 Z m 16.370916,1.15665 c 0.201945,-0.09355 0.474541,-0.277457 0.605768,-0.408685 l 0.238594,-0.238594 h 4.145076 4.145076 l 0.238595,0.238594 c 0.393719,0.39372 0.88008,0.582867 1.498744,0.582867 0.430787,0 0.591125,-0.03102 0.887291,-0.171674 0.435315,-0.206736 0.80635,-0.567035 1.041404,-1.011276 0.15298,-0.289122 0.173798,-0.403685 0.173178,-0.953017 -8.32e-4,-0.730069 -0.121319,-1.046035 -0.575933,-1.510227 -0.428081,-0.4371 -0.888103,-0.625741 -1.52594,-0.625741 -0.648226,0 -1.130012,0.200322 -1.569595,0.652619 l -0.291852,0.300294 h -4.022752 -4.022752 l -0.388047,-0.359263 c -0.301805,-0.279419 -0.484231,-0.388972 -0.820842,-0.492939 -0.508736,-0.157133 -0.728533,-0.165284 -1.194887,-0.04432 -0.652865,0.169351 -1.26884,0.730387 -1.494878,1.361548 -0.227978,0.636578 -0.08632,1.511203 0.334003,2.062283 0.585789,0.768007 1.702364,1.033231 2.599749,0.617525 z"
           id="path137"
           inkscape:connector-curvature="0"
           sodipodi:nodetypes="sccsccccccssscccsssssssscccssssss" />
        <path
           style="opacity:1;fill:#917c6f;fill-opacity:1;stroke:#917c6f;stroke-width:0.484649;stroke-miterlimit:4;stroke-dasharray:none;stroke-dashoffset:0;stroke-opacity:1"
           d="m 4.06607,22.025743 v -4.502182 h 20.999232 20.999234 v 4.502182 4.502183 H 25.065302 4.06607 Z m 16.464187,1.792096 c 0.180744,-0.09355 0.430552,-0.276246 0.555127,-0.405995 l 0.226499,-0.235908 4.144232,6.9e-4 4.144232,6.89e-4 0.229757,0.236415 c 0.36389,0.374434 0.808122,0.567812 1.380513,0.600943 0.690474,0.03997 1.150746,-0.138679 1.654068,-0.642002 0.31721,-0.31721 0.395178,-0.445112 0.518166,-0.850025 0.219987,-0.724259 0.09723,-1.397031 -0.365651,-2.003896 -0.41714,-0.546898 -1.319102,-0.891458 -2.013434,-0.769153 -0.486771,0.08574 -0.991939,0.356518 -1.268993,0.680194 l -0.212761,0.248562 H 25.450256 21.3785 l -0.259809,-0.270697 c -0.401541,-0.418372 -0.943686,-0.649342 -1.524315,-0.649405 -0.87124,-7.6e-5 -1.52243,0.381057 -1.927508,1.1282 -0.209563,0.386526 -0.225701,0.458589 -0.225701,1.00782 0,0.555113 0.01448,0.617829 0.235217,1.018743 0.255307,0.463701 0.686827,0.84698 1.145014,1.017007 0.423542,0.157172 1.29953,0.09965 1.708859,-0.112204 z"
           id="path139"
           inkscape:connector-curvature="0" />
        <path
           style="opacity:1;fill:#917c6f;fill-opacity:1;stroke:#917c6f;stroke-width:0.484649;stroke-miterlimit:4;stroke-dasharray:none;stroke-dashoffset:0;stroke-opacity:1"
           d="m 3.9349978,30.668616 c 1.517e-4,1.170185 0.0071,2.109589 0.019922,2.760662 -0.081309,2.0067 1.3187534,2.188149 2.6358724,2.185168 H 24.954453 c 11.249669,0 16.845187,-0.01106 18.96512,-0.04147 1.439753,-0.06022 2.148633,-0.593227 2.143812,-1.880911 l 5.74e-4,-2.95772 5.74e-4,-3.598461 H 24.999589 3.9346313 Z M 20.305913,29.511965 c 0.201947,0.09355 0.474543,0.277457 0.605769,0.408684 l 0.238595,0.238594 h 4.145077 4.145075 l 0.238594,-0.238594 c 0.393721,-0.393721 0.880079,-0.582866 1.498744,-0.582866 0.430786,0 0.591125,0.03102 0.887291,0.171674 0.435316,0.206735 0.80635,0.567035 1.041405,1.011275 0.152978,0.289124 0.173799,0.403688 0.173179,0.953018 -8.62e-4,0.73007 -0.121319,1.046038 -0.575933,1.510227 -0.428085,0.4371 -0.888104,0.62574 -1.525942,0.62574 -0.648226,0 -1.130012,-0.200321 -1.569596,-0.652617 L 29.316319,32.656806 H 25.29357 21.270817 l -0.388047,0.359263 c -0.301806,0.279418 -0.484232,0.38897 -0.820843,0.492941 -0.508736,0.157132 -0.728534,0.165283 -1.194887,0.04431 -0.652864,-0.169351 -1.26884,-0.730389 -1.494878,-1.361548 -0.227978,-0.636578 -0.08632,-1.511205 0.334004,-2.062284 0.585787,-0.768009 1.702363,-1.03323 2.599747,-0.617526 z"
           id="path137-6"
           inkscape:connector-curvature="0"
           sodipodi:nodetypes="sccsccccccssscccsssssssscccssssss" />
      </g>
      <g
         id="g866">
        <path
           style="fill:#483737;stroke:#1c2422;stroke-width:0;stroke-linejoin:round;stroke-dashoffset:24.1308;paint-order:markers stroke fill"
           d="m 18.95911,14.410276 c -0.820939,-0.230615 -1.367297,-0.979726 -1.367297,-1.874704 0,-0.913352 0.906966,-1.808773 1.837459,-1.814067 0.499721,-0.0028 0.921085,0.176281 1.402662,0.596278 l 0.406665,0.354666 h 4.132802 4.132803 l 0.409558,-0.383122 c 0.491992,-0.460236 0.801669,-0.5685 1.49709,-0.523392 0.563078,0.03652 0.779647,0.13689 1.18704,0.550118 0.371919,0.37725 0.462105,0.631356 0.464727,1.309412 0.0024,0.603526 -0.112743,0.889603 -0.521729,1.29699 -0.370751,0.3693 -0.714212,0.510456 -1.242046,0.510456 -0.621165,0 -0.918595,-0.10665 -1.319652,-0.473193 l -0.345218,-0.31551 h -4.252843 -4.252843 l -0.30585,0.271996 c -0.551367,0.490336 -1.23312,0.671107 -1.863328,0.494072 z"
           id="path857" />
        <path
           style="fill:#483737;stroke:#1c2422;stroke-width:0;stroke-linejoin:round;stroke-dashoffset:24.1308;paint-order:markers stroke fill"
           d="m 19.037344,23.708543 c -0.487719,-0.160347 -0.931905,-0.553626 -1.175662,-1.04092 -0.205423,-0.410662 -0.194594,-1.161344 0.02295,-1.590637 0.312525,-0.616739 0.821432,-0.966962 1.508061,-1.037828 0.551785,-0.05695 1.012401,0.111712 1.475172,0.540157 l 0.389276,0.3604 h 4.208542 4.208543 l 0.206405,-0.260606 c 0.127493,-0.160975 0.368056,-0.340188 0.629231,-0.468765 0.386901,-0.190471 0.463739,-0.205531 0.904345,-0.177254 1.156638,0.07423 1.966025,1.036121 1.767972,2.101098 -0.09948,0.534908 -0.245326,0.802921 -0.620502,1.140237 -0.414504,0.372675 -0.886616,0.525138 -1.421018,0.458902 -0.508584,-0.06303 -0.7414,-0.171989 -1.115755,-0.522154 l -0.320405,-0.299698 h -4.258512 -4.258512 l -0.320403,0.299698 c -0.176221,0.164835 -0.421436,0.341914 -0.544922,0.39351 -0.274126,0.114536 -1.059278,0.178007 -1.284806,0.10386 z"
           id="path859" />
        <path
           style="fill:#483737;stroke:#1c2422;stroke-width:0;stroke-linejoin:round;stroke-dashoffset:24.1308;paint-order:markers stroke fill"
           d="m 18.818672,33.251798 c -0.383033,-0.132423 -0.917426,-0.596503 -1.113589,-0.96707 -0.203934,-0.385246 -0.200891,-1.130162 0.0065,-1.584805 0.323122,-0.708435 0.908316,-1.08374 1.6877,-1.082383 0.541254,9.65e-4 0.898345,0.139565 1.35916,0.527623 l 0.307555,0.258995 h 4.263892 4.263892 l 0.226499,-0.235798 c 0.339573,-0.353511 0.681206,-0.503318 1.229452,-0.539117 0.779653,-0.05091 1.36786,0.26841 1.775389,0.963805 0.153969,0.26273 0.174498,0.366461 0.171433,0.866247 -0.004,0.660546 -0.151102,1.045798 -0.52423,1.373407 -0.413479,0.36304 -0.732039,0.484831 -1.27535,0.487587 -0.61138,0.0031 -0.939909,-0.133508 -1.455172,-0.605092 l -0.370705,-0.33928 h -4.088082 -4.088083 l -0.372022,0.336387 c -0.204612,0.185013 -0.501762,0.395218 -0.660332,0.467123 -0.395469,0.17933 -0.948379,0.209105 -1.343881,0.07237 z"
           id="path861" />
      </g>
    </g>
  </g>
</svg>
